<?xml version="1.0" encoding="utf-8"?>
<!-- Generator: Adobe Illustrator 21.0.0, SVG Export Plug-In . SVG Version: 6.00 Build 0)  -->
<svg version="1.1" id="layer" xmlns="http://www.w3.org/2000/svg" xmlns:xlink="http://www.w3.org/1999/xlink" x="0px" y="0px"
	 viewBox="0 0 226.8 226.8" style="enable-background:new 0 0 226.8 226.8;" xml:space="preserve">
<g>
	<path d="M113.4,5.5c59.6,0,107.9,48.3,107.9,107.9S173,221.3,113.4,221.3C53.8,221.3,5.5,173,5.5,113.4S53.8,5.5,113.4,5.5
		 M113.4,1.4c-29.9,0-58,11.6-79.2,32.8C13.1,55.4,1.4,83.5,1.4,113.4c0,29.9,11.6,58,32.8,79.2c21.1,21.1,49.3,32.8,79.2,32.8
		c29.9,0,58-11.6,79.2-32.8c21.1-21.1,32.8-49.3,32.8-79.2c0-29.9-11.6-58-32.8-79.2C171.4,13.1,143.3,1.4,113.4,1.4"/>
	<path d="M175.8,191.2L175.8,191.2L113.4,14.6L51,191.2 M56.7,187.2l56.7-160.4l27.6,78.2L112,187.2H56.7z M116.2,187.2l26.9-76.1
		l11.3,31.9l15.6,44.2H116.2z"/>
</g>
</svg>
